<?xml version="1.0" encoding="UTF-8"?>
<svg id="Ebene_1" xmlns="http://www.w3.org/2000/svg" version="1.1" viewBox="0 0 400 400">
  <!-- Generator: Adobe Illustrator 29.1.0, SVG Export Plug-In . SVG Version: 2.1.0 Build 142)  -->
  <defs>
    <style>
      .st0, .st1 {
        fill: #fff;
      }

      .st2 {
        fill: blue;
      }

      .st1 {
        stroke: #000;
        stroke-miterlimit: 10;
        stroke-width: 12px;
      }
    </style>
  </defs>
  <g>
    <path class="st0" d="M218.9,337.4c-1.1,0-2.2-.1-3.3-.4-2.8-.7-5.3-2.1-7.2-4.3l-28-30.8c-2.4-2.6-3.7-6-3.7-9.5v-18.6l6.3.3c2.4.1,4.8.2,7.4.2,11.9,0,23.7-1.2,35.2-3.5l6-1.2,1.1,6c.2.9.2,1.7.2,2.6v45.2c0,7.8-6.3,14.1-14.1,14.1Z"/>
    <path d="M226.8,276.7c0,.5.1,1,.1,1.5v45.2c0,4.6-3.7,8.1-8.1,8.1s-1.2,0-1.9-.2c-1.6-.4-3-1.2-4.1-2.4l-28-30.8c-1.4-1.5-2.1-3.4-2.1-5.4v-12.3c2.5.1,5.1.2,7.7.2,12.6,0,24.7-1.3,36.4-3.6M236.4,262.5l-11.9,2.4c-11,2.2-22.5,3.4-34,3.4s-4.9,0-7.1-.1l-12.5-.5v24.9c0,5,1.8,9.8,5.2,13.5l28,30.8c2.7,3,6.2,5.1,10.2,6,1.6.4,3.1.6,4.7.6,11.1,0,20.1-9,20.1-20.1v-45.2c0-1.2-.1-2.5-.3-3.7l-2.2-12h0Z"/>
  </g>
  <path class="st1" d="M337,163.4c0,54.6-46.8,100.4-110.2,113.3-11.6,2.4-23.8,3.6-36.4,3.6s-5.1,0-7.7-.2c-77.4-3.2-138.9-54.2-138.9-116.8S109.5,46.5,190.5,46.5s146.6,52.4,146.6,116.9Z"/>
  <polygon class="st2" points="150.4 150.5 170.4 150.6 170.2 219.2 150.6 219.1 150.6 229 238.9 229 238.9 219.1 218.8 219 218.8 141.1 150.4 141.1 150.4 150.5"/>
  <path class="st0" d="M227,278.2v45.2c0,5.2-4.9,9.1-9.9,7.9-1.6-.4-3-1.2-4.1-2.4l-28-30.8c-1.3-1.5-2.1-3.4-2.1-5.4v-20.3c2.5.1,5.1.2,7.7.2,12.6,0,24.7-1.3,36.4-3.6,0,.5.1,9,.1,9.5Z"/>
  <ellipse class="st2" cx="189.4" cy="102.6" rx="29.6" ry="18.9"/>
</svg>
